<svg width="25" height="25" viewBox="0 0 25 25" fill="none" xmlns="http://www.w3.org/2000/svg">
<path fill-rule="evenodd" clip-rule="evenodd" d="M12.8906 3.90552C11.8134 3.90552 10.7467 4.1177 9.75141 4.52994C8.75617 4.94219 7.85186 5.54642 7.09013 6.30815C6.32841 7.06988 5.72417 7.97418 5.31192 8.96943C4.89968 9.96468 4.6875 11.0314 4.6875 12.1086V20.3118H12.8906C15.0662 20.3118 17.1527 19.4475 18.6911 17.9091C20.2295 16.3708 21.0938 14.2843 21.0938 12.1087V12.1086C21.0938 11.0314 20.8816 9.96469 20.4693 8.96944C20.0571 7.97419 19.4528 7.06989 18.6911 6.30816C17.9294 5.54643 17.0251 4.94219 16.0298 4.52994C15.0346 4.1177 13.9679 3.90552 12.8906 3.90552H12.8906ZM9.15347 3.08638C10.3383 2.59561 11.6082 2.34302 12.8906 2.34302H12.8906C14.1731 2.34302 15.4429 2.59561 16.6278 3.08638C17.8126 3.57715 18.8891 4.29648 19.796 5.2033C20.7028 6.11013 21.4221 7.18668 21.9129 8.3715C22.4037 9.55632 22.6562 10.8262 22.6562 12.1086V12.1087C22.6562 14.6987 21.6274 17.1826 19.796 19.014C17.9646 20.8454 15.4806 21.8743 12.8906 21.8743H4.65495C4.24918 21.8743 3.86003 21.7131 3.57311 21.4262C3.28619 21.1392 3.125 20.7501 3.125 20.3443V12.1086C3.125 10.8262 3.3776 9.55631 3.86836 8.37149C4.35913 7.18667 5.07846 6.11012 5.98528 5.2033C6.8921 4.29648 7.96865 3.57715 9.15347 3.08638Z" fill="#5C82E4"/>
<path fill-rule="evenodd" clip-rule="evenodd" d="M8.98438 10.9368C8.98438 10.5053 9.33415 10.1555 9.76562 10.1555H15.625C16.0565 10.1555 16.4062 10.5053 16.4062 10.9368C16.4062 11.3682 16.0565 11.718 15.625 11.718H9.76562C9.33415 11.718 8.98438 11.3682 8.98438 10.9368Z" fill="#5C82E4"/>
<path fill-rule="evenodd" clip-rule="evenodd" d="M8.98438 14.0618C8.98438 13.6303 9.33415 13.2805 9.76562 13.2805H15.625C16.0565 13.2805 16.4062 13.6303 16.4062 14.0618C16.4062 14.4932 16.0565 14.843 15.625 14.843H9.76562C9.33415 14.843 8.98438 14.4932 8.98438 14.0618Z" fill="#5C82E4"/>
</svg>
