<svg width="31" height="20" viewBox="0 0 31 20" fill="none" xmlns="http://www.w3.org/2000/svg">
<path d="M9.13336 2.42679H28.9827C29.5457 2.42679 30.0021 2.88317 30.0021 3.44615C30.0021 4.00913 29.5457 4.46551 28.9827 4.46551H9.13336V2.42679Z" fill="#FF727A"/>
<path d="M0.00250244 3.44615C0.00250244 2.88317 0.458887 2.42679 1.02187 2.42679H3.91538V4.46551H1.02187C0.458887 4.46551 0.00250244 4.00913 0.00250244 3.44615Z" fill="#FF727A"/>
<path d="M8.64565 3.34933C8.64565 4.68606 7.61591 5.69867 6.4315 5.69867C5.24708 5.69867 4.21735 4.68606 4.21735 3.34933C4.21735 2.0126 5.24708 1 6.4315 1C7.61591 1 8.64565 2.0126 8.64565 3.34933Z" stroke="#FF727A" stroke-width="2"/>
<path d="M20.8687 8.93069H1.01938C0.4564 8.93069 1.52588e-05 9.38708 1.52588e-05 9.95006C1.52588e-05 10.513 0.4564 10.9694 1.01938 10.9694H20.8687V8.93069Z" fill="#FF727A"/>
<path d="M29.9996 9.95006C29.9996 9.38708 29.5432 8.93069 28.9802 8.93069H26.0867V10.9694H28.9802C29.5432 10.9694 29.9996 10.513 29.9996 9.95006Z" fill="#FF727A"/>
<path d="M21.3564 9.85324C21.3564 11.19 22.3862 12.2026 23.5706 12.2026C24.755 12.2026 25.7847 11.19 25.7847 9.85324C25.7847 8.51651 24.755 7.50391 23.5706 7.50391C22.3862 7.50391 21.3564 8.51651 21.3564 9.85324Z" stroke="#FF727A" stroke-width="2"/>
<path d="M9.13336 15.7275H28.9827C29.5457 15.7275 30.0021 16.1839 30.0021 16.7469C30.0021 17.3099 29.5457 17.7663 28.9827 17.7663H9.13336V15.7275Z" fill="#FF727A"/>
<path d="M0.00250244 16.7469C0.00250244 16.1839 0.458887 15.7275 1.02187 15.7275H3.91538V17.7663H1.02187C0.458887 17.7663 0.00250244 17.3099 0.00250244 16.7469Z" fill="#FF727A"/>
<path d="M8.64565 16.6502C8.64565 17.9869 7.61591 18.9995 6.4315 18.9995C5.24708 18.9995 4.21735 17.9869 4.21735 16.6502C4.21735 15.3135 5.24708 14.3009 6.4315 14.3009C7.61591 14.3009 8.64565 15.3135 8.64565 16.6502Z" stroke="#FF727A" stroke-width="2"/>
</svg>
