<svg width="10" height="18" viewBox="0 0 10 18" fill="none" xmlns="http://www.w3.org/2000/svg">
<path d="M9.73123 16.4998C10.0794 16.8383 10.0847 17.3995 9.74304 17.7446C9.41239 18.0786 8.87856 18.0859 8.53907 17.7611L0.283686 9.86244C-0.0875199 9.50728 -0.0954982 8.91274 0.266042 8.54754C0.615963 8.19407 1.1816 8.18859 1.53817 8.53522L9.73123 16.4998Z" fill="white"/>
<path d="M8.53188 0.254442C8.86773 -0.0848123 9.41226 -0.0848122 9.74811 0.254442C10.084 0.593695 10.084 1.14373 9.74811 1.48299L1.84259 9.46854C1.50674 9.80779 0.962209 9.80779 0.626356 9.46854C0.290501 9.12928 0.290501 8.57924 0.626356 8.23999L8.53188 0.254442Z" fill="white"/>
</svg>
