<svg width="65" height="65" viewBox="0 0 65 65" fill="none" xmlns="http://www.w3.org/2000/svg">
<path d="M32.5 34.5312C36.9873 34.5312 40.625 30.8936 40.625 26.4062C40.625 21.9189 36.9873 18.2812 32.5 18.2812C28.0127 18.2812 24.375 21.9189 24.375 26.4062C24.375 30.8936 28.0127 34.5312 32.5 34.5312Z" stroke="black" stroke-width="2" stroke-linecap="round" stroke-linejoin="round"/>
<path d="M52.8125 26.4062C52.8125 44.6875 32.5 58.9062 32.5 58.9062C32.5 58.9062 12.1875 44.6875 12.1875 26.4062C12.1875 21.019 14.3276 15.8525 18.1369 12.0431C21.9462 8.23381 27.1128 6.09375 32.5 6.09375C37.8872 6.09375 43.0538 8.23381 46.8631 12.0431C50.6724 15.8525 52.8125 21.019 52.8125 26.4062V26.4062Z" stroke="black" stroke-width="2" stroke-linecap="round" stroke-linejoin="round"/>
</svg>
