<svg width="25" height="25" viewBox="0 0 25 25" fill="none" xmlns="http://www.w3.org/2000/svg">
<g clip-path="url(#clip0_210_1930)">
<path d="M24.8756 12.0918C24.8198 12.0088 23.4853 10.0357 21.3172 8.03881C20.0335 6.85659 18.7222 5.91211 17.4197 5.23169C15.7569 4.36304 14.1018 3.92261 12.5 3.92261C10.8983 3.92261 9.24317 4.36304 7.58043 5.23169C6.27789 5.91215 4.96662 6.85659 3.68293 8.03881C1.51472 10.0357 0.180249 12.0088 0.124438 12.0918C-0.0414794 12.3388 -0.0414794 12.6615 0.124438 12.9084C0.1802 12.9914 1.51472 14.9645 3.68288 16.9614C4.96657 18.1436 6.27789 19.0881 7.58038 19.7685C9.24312 20.6372 10.8983 21.0776 12.5 21.0776C14.1017 21.0776 15.7569 20.6372 17.4196 19.7685C18.7222 19.0881 20.0334 18.1436 21.3171 16.9614C23.4853 14.9645 24.8198 12.9914 24.8756 12.9084C25.0415 12.6615 25.0415 12.3388 24.8756 12.0918ZM20.3018 15.9051C18.46 17.5965 15.6115 19.6128 12.5001 19.6128C9.38873 19.6128 6.54015 17.5965 4.6984 15.9051C3.21584 14.5436 2.12673 13.1648 1.63352 12.5001C2.12683 11.8353 3.21584 10.4566 4.69836 9.09511C6.5401 7.4037 9.38868 5.38745 12.5 5.38745C15.6114 5.38745 18.46 7.4037 20.3017 9.09511C21.7842 10.4566 22.8734 11.8354 23.3666 12.5001C22.8733 13.1649 21.7842 14.5436 20.3018 15.9051Z" fill="#C1C1C1"/>
<path d="M12.4993 8.62964C10.3652 8.62964 8.62891 10.3659 8.62891 12.5001C8.62891 14.6343 10.3652 16.3705 12.4993 16.3705C14.6335 16.3705 16.3698 14.6343 16.3698 12.5001C16.3698 10.3659 14.6335 8.62964 12.4993 8.62964ZM12.4993 14.9056C11.1729 14.9056 10.0937 13.8265 10.0937 12.5C10.0937 11.1736 11.1729 10.0944 12.4993 10.0944C13.8258 10.0944 14.905 11.1736 14.905 12.5C14.905 13.8265 13.8258 14.9056 12.4993 14.9056Z" fill="#C1C1C1"/>
</g>
<defs>
<clipPath id="clip0_210_1930">
<rect width="25" height="25" fill="white"/>
</clipPath>
</defs>
</svg>
