<svg width="50" height="50" viewBox="0 0 50 50" fill="none" xmlns="http://www.w3.org/2000/svg">
<path d="M31.2489 15.624L14.9778 32.1653C14.3917 32.7513 14.0625 33.5462 14.0625 34.375C14.0625 35.2038 14.3917 35.9986 14.9778 36.5847C15.5638 37.1707 16.3587 37.5 17.1875 37.5C18.0163 37.5 18.8112 37.1707 19.3972 36.5847L38.7933 16.9184C39.3736 16.3381 39.834 15.6491 40.1481 14.8908C40.4622 14.1325 40.6239 13.3198 40.6239 12.499C40.6239 11.6783 40.4622 10.8655 40.1481 10.1073C39.834 9.34897 39.3736 8.65997 38.7933 8.07961C38.2129 7.49924 37.5239 7.03887 36.7656 6.72478C36.0073 6.41068 35.1946 6.24902 34.3739 6.24902C33.5531 6.24902 32.7404 6.41068 31.9821 6.72478C31.2238 7.03887 30.5348 7.49924 29.9544 8.07961L10.5584 27.7459C8.80022 29.504 7.8125 31.8886 7.8125 34.375C7.8125 36.8614 8.80022 39.246 10.5584 41.0041C12.3165 42.7623 14.7011 43.75 17.1875 43.75C19.6739 43.75 22.0585 42.7623 23.8166 41.0041L39.8426 24.999" stroke="#2F2F2F" stroke-width="2" stroke-linecap="round" stroke-linejoin="round"/>
</svg>
