<svg width="10" height="12" viewBox="0 0 10 12" fill="none" xmlns="http://www.w3.org/2000/svg">
<path fill-rule="evenodd" clip-rule="evenodd" d="M5 0C5.27614 0 5.5 0.223858 5.5 0.5V11.5C5.5 11.7761 5.27614 12 5 12C4.72386 12 4.5 11.7761 4.5 11.5V0.5C4.5 0.223858 4.72386 0 5 0Z" fill="#5C82E4"/>
<path fill-rule="evenodd" clip-rule="evenodd" d="M4.64645 0.146447C4.84171 -0.0488155 5.15829 -0.0488155 5.35355 0.146447L9.85355 4.64645C10.0488 4.84171 10.0488 5.15829 9.85355 5.35355C9.65829 5.54882 9.34171 5.54882 9.14645 5.35355L5 1.20711L0.853553 5.35355C0.658291 5.54882 0.341709 5.54882 0.146447 5.35355C-0.0488155 5.15829 -0.0488155 4.84171 0.146447 4.64645L4.64645 0.146447Z" fill="#5C82E4"/>
</svg>
