<svg width="18" height="10" viewBox="0 0 18 10" fill="none" xmlns="http://www.w3.org/2000/svg">
<path d="M16.4998 0.268772C16.8383 -0.0793941 17.3995 -0.0847205 17.7446 0.256958C18.0786 0.587613 18.0859 1.12144 17.7611 1.46093L9.86244 9.71631C9.50728 10.0875 8.91274 10.0955 8.54754 9.73396C8.19407 9.38404 8.18859 8.8184 8.53522 8.46183L16.4998 0.268772Z" fill="#7C4BE2"/>
<path d="M0.254442 1.46812C-0.0848122 1.13227 -0.0848122 0.587743 0.254442 0.25189C0.593695 -0.0839642 1.14373 -0.0839641 1.48299 0.25189L9.46854 8.15741C9.80779 8.49326 9.80779 9.03779 9.46854 9.37364C9.12928 9.7095 8.57924 9.7095 8.23999 9.37364L0.254442 1.46812Z" fill="#7C4BE2"/>
</svg>
