<svg width="10" height="18" viewBox="0 0 10 18" fill="none" xmlns="http://www.w3.org/2000/svg">
<path d="M0.268772 1.50019C-0.079394 1.16174 -0.0847205 0.600522 0.256958 0.255384C0.587613 -0.0786183 1.12144 -0.0859278 1.46093 0.238899L9.71631 8.13756C10.0875 8.49272 10.0955 9.08726 9.73396 9.45246C9.38404 9.80593 8.8184 9.81141 8.46183 9.46478L0.268772 1.50019Z" fill="white"/>
<path d="M1.46812 17.7456C1.13227 18.0848 0.587744 18.0848 0.25189 17.7456C-0.0839634 17.4063 -0.0839634 16.8563 0.25189 16.517L8.15741 8.53146C8.49326 8.19221 9.03779 8.19221 9.37364 8.53146C9.7095 8.87072 9.7095 9.42076 9.37364 9.76001L1.46812 17.7456Z" fill="white"/>
</svg>
