<svg width="18" height="10" viewBox="0 0 18 10" fill="none" xmlns="http://www.w3.org/2000/svg">
<path d="M1.50019 9.73123C1.16174 10.0794 0.600522 10.0847 0.255384 9.74304C-0.0786183 9.41239 -0.0859278 8.87856 0.238899 8.53907L8.13756 0.283686C8.49272 -0.0875205 9.08726 -0.0954989 9.45246 0.266041C9.80593 0.615962 9.81141 1.1816 9.46478 1.53817L1.50019 9.73123Z" fill="#2F2F2F"/>
<path d="M17.7456 8.53188C18.0848 8.86773 18.0848 9.41226 17.7456 9.74811C17.4063 10.084 16.8563 10.084 16.517 9.74811L8.53146 1.84259C8.19221 1.50674 8.19221 0.962209 8.53146 0.626355C8.87072 0.290501 9.42076 0.290501 9.76001 0.626355L17.7456 8.53188Z" fill="#2F2F2F"/>
</svg>
