<svg width="25" height="25" viewBox="0 0 25 25" fill="none" xmlns="http://www.w3.org/2000/svg">
<path d="M3.3273 13.7449C2.45372 12.2723 2.14778 10.5314 2.46694 8.84912C2.7861 7.16686 3.7084 5.65897 5.06066 4.60861C6.41291 3.55824 8.1021 3.03765 9.81102 3.14459C11.5199 3.25153 13.1311 3.97864 14.3418 5.1894C15.5526 6.40015 16.2797 8.01126 16.3866 9.72018C16.4936 11.4291 15.973 13.1183 14.9226 14.4706C13.8723 15.8228 12.3644 16.7451 10.6821 17.0643C8.99988 17.3835 7.25897 17.0775 5.78632 16.204L5.78633 16.2039L3.35787 16.8977C3.2574 16.9264 3.15108 16.9277 3.04993 16.9015C2.94877 16.8753 2.85647 16.8225 2.78258 16.7487C2.7087 16.6748 2.65591 16.5825 2.6297 16.4813C2.60349 16.3802 2.6048 16.2738 2.63351 16.1734L3.32736 13.7449L3.3273 13.7449Z" stroke="#C1C1C1" stroke-width="2" stroke-linecap="round" stroke-linejoin="round"/>
<path d="M8.99023 17.1769C9.33588 18.1582 9.89485 19.0506 10.6269 19.7898C11.3589 20.529 12.2457 21.0967 13.2236 21.452C14.2014 21.8073 15.2458 21.9412 16.2816 21.8443C17.3174 21.7474 18.3189 21.4219 19.2138 20.8914L19.2138 20.8913L21.6422 21.5852C21.7427 21.6139 21.849 21.6152 21.9502 21.589C22.0513 21.5628 22.1436 21.51 22.2175 21.4361C22.2914 21.3622 22.3442 21.2699 22.3704 21.1688C22.3966 21.0676 22.3953 20.9613 22.3666 20.8608L21.6728 18.4324L21.6728 18.4324C22.2893 17.3927 22.6274 16.2117 22.6546 15.0032C22.6817 13.7948 22.397 12.5998 21.8278 11.5334C21.2586 10.4671 20.4242 9.56545 19.4051 8.91549C18.386 8.26552 17.2166 7.88917 16.0096 7.82275" stroke="#C1C1C1" stroke-width="2" stroke-linecap="round" stroke-linejoin="round"/>
</svg>
