<svg width="46" height="30" viewBox="0 0 46 30" fill="none" xmlns="http://www.w3.org/2000/svg">
<path d="M14 3.64108H44.4709C45.3154 3.64108 46 4.32569 46 5.17019C46 6.01469 45.3154 6.6993 44.4709 6.6993H14V3.64108Z" fill="#FF727A"/>
<path d="M0 5.17019C0 4.32569 0.684605 3.64108 1.52911 3.64108H6V6.6993H1.52911C0.684604 6.6993 0 6.01469 0 5.17019Z" fill="#FF727A"/>
<path d="M13.7859 5.02421C13.7859 7.26493 12.0089 9.04842 9.85728 9.04842C7.70562 9.04842 5.92871 7.26493 5.92871 5.02421C5.92871 2.7835 7.70562 1 9.85728 1C12.0089 1 13.7859 2.7835 13.7859 5.02421Z" stroke="#FF727A" stroke-width="2"/>
<path d="M32 13.399H1.52911C0.684605 13.399 0 14.0836 0 14.9281C0 15.7726 0.684605 16.4572 1.52911 16.4572H32V13.399Z" fill="#FF727A"/>
<path d="M46 14.9281C46 14.0836 45.3154 13.399 44.4709 13.399H40V16.4572H44.4709C45.3154 16.4572 46 15.7726 46 14.9281Z" fill="#FF727A"/>
<path d="M32.2141 14.7821C32.2141 17.0228 33.9911 18.8063 36.1427 18.8063C38.2944 18.8063 40.0713 17.0228 40.0713 14.7821C40.0713 12.5414 38.2944 10.7579 36.1427 10.7579C33.9911 10.7579 32.2141 12.5414 32.2141 14.7821Z" stroke="#FF727A" stroke-width="2"/>
<path d="M14 23.5926H44.4709C45.3154 23.5926 46 24.2772 46 25.1217C46 25.9662 45.3154 26.6508 44.4709 26.6508H14V23.5926Z" fill="#FF727A"/>
<path d="M0 25.1217C0 24.2772 0.684605 23.5926 1.52911 23.5926H6V26.6508H1.52911C0.684604 26.6508 0 25.9662 0 25.1217Z" fill="#FF727A"/>
<path d="M13.7859 24.9757C13.7859 27.2164 12.0089 28.9999 9.85728 28.9999C7.70562 28.9999 5.92871 27.2164 5.92871 24.9757C5.92871 22.735 7.70562 20.9515 9.85728 20.9515C12.0089 20.9515 13.7859 22.735 13.7859 24.9757Z" stroke="#FF727A" stroke-width="2"/>
</svg>
