<svg width="25" height="25" viewBox="0 0 25 25" fill="none" xmlns="http://www.w3.org/2000/svg">
<path fill-rule="evenodd" clip-rule="evenodd" d="M0.741953 0.757274C-0.247318 1.76697 -0.247318 3.40402 0.741953 4.41372L8.95856 12.8L1.32979 20.5863C0.340522 21.596 0.340523 23.233 1.32979 24.2427C2.31906 25.2524 3.92299 25.2524 4.91226 24.2427L12.541 16.4564L20.0873 24.1585C21.0765 25.1682 22.6805 25.1682 23.6697 24.1585C24.659 23.1488 24.659 21.5118 23.6697 20.5021L16.1235 12.8L24.2576 4.49793C25.2468 3.48824 25.2468 1.85119 24.2576 0.841491C23.2683 -0.168207 21.6644 -0.168207 20.6751 0.841491L12.541 9.14355L4.32442 0.757274C3.33515 -0.252425 1.73122 -0.252424 0.741953 0.757274Z" fill="#2F2F2F"/>
</svg>
