<svg width="25" height="25" viewBox="0 0 25 25" fill="none" xmlns="http://www.w3.org/2000/svg">
<path fill-rule="evenodd" clip-rule="evenodd" d="M3.54911 8.43163C5.41146 6.56907 8.33389 4.68677 12.5 4.68677C16.6661 4.68677 19.5885 6.56907 21.4509 8.43163C22.3798 9.36065 23.0497 10.2883 23.4883 10.985C23.708 11.334 23.8708 11.6268 23.98 11.8354C24.0347 11.9397 24.076 12.0232 24.1044 12.0822C24.1186 12.1117 24.1296 12.1351 24.1374 12.152L24.1468 12.1724L24.1497 12.1789L24.1511 12.182C24.1511 12.182 24.1514 12.1828 23.4375 12.5C24.1514 12.8174 24.1511 12.8181 24.1511 12.8181L24.1507 12.819L24.1497 12.8212L24.1468 12.8277L24.1374 12.8481C24.1296 12.865 24.1186 12.8884 24.1044 12.9179C24.076 12.9769 24.0347 13.0603 23.98 13.1647C23.8708 13.3732 23.708 13.6659 23.4882 14.0148C23.0496 14.7114 22.3798 15.6389 21.4508 16.5677C19.5885 18.4299 16.666 20.3118 12.5 20.3118C8.33395 20.3118 5.41154 18.4299 3.54917 16.5677C2.62024 15.6389 1.95039 14.7114 1.51175 14.0148C1.29205 13.6659 1.12923 13.3732 1.02 13.1647C0.965349 13.0603 0.924022 12.9769 0.895609 12.9179C0.881401 12.8884 0.870413 12.865 0.862597 12.8481L0.853241 12.8277L0.850333 12.8212L0.849319 12.819L0.848922 12.8181C0.848922 12.8181 0.848598 12.8174 1.5625 12.5C0.848572 12.1828 0.848896 12.182 0.848896 12.182L0.849293 12.1811L0.850307 12.1789L0.853214 12.1724L0.862569 12.152C0.870385 12.1351 0.881372 12.1117 0.895581 12.0822C0.923992 12.0232 0.965318 11.9397 1.01996 11.8354C1.1292 11.6268 1.29201 11.334 1.51171 10.985C1.95035 10.2883 2.62018 9.36065 3.54911 8.43163ZM1.5625 12.5L0.848572 12.1828C0.7588 12.3848 0.75881 12.6154 0.848598 12.8174L1.5625 12.5ZM2.43603 12.5C2.52794 12.3278 2.65993 12.094 2.83399 11.8175C3.22544 11.1957 3.82513 10.3654 4.65402 9.53642C6.30729 7.88297 8.85361 6.24927 12.5 6.24927C16.1464 6.24927 18.6927 7.88297 20.346 9.53642C21.1749 10.3654 21.7746 11.1957 22.166 11.8175C22.3401 12.094 22.4721 12.3278 22.564 12.5C22.4721 12.6721 22.3401 12.9059 22.166 13.1823C21.7746 13.8039 21.1749 14.634 20.346 15.4628C18.6928 17.1159 16.1465 18.7493 12.5 18.7493C8.85355 18.7493 6.30721 17.1159 4.65396 15.4628C3.82508 14.634 3.22539 13.8039 2.83395 13.1823C2.65992 12.9059 2.52793 12.6721 2.43603 12.5ZM23.4375 12.5L24.1514 12.8174C24.2412 12.6154 24.2412 12.3848 24.1514 12.1828L23.4375 12.5Z" fill="#5C82E4"/>
<path fill-rule="evenodd" clip-rule="evenodd" d="M12.5 9.37509C10.7741 9.37509 9.375 10.7742 9.375 12.5001C9.375 14.226 10.7741 15.6251 12.5 15.6251C14.2259 15.6251 15.625 14.226 15.625 12.5001C15.625 10.7742 14.2259 9.37509 12.5 9.37509ZM7.8125 12.5001C7.8125 9.91125 9.91117 7.81259 12.5 7.81259C15.0888 7.81259 17.1875 9.91125 17.1875 12.5001C17.1875 15.0889 15.0888 17.1876 12.5 17.1876C9.91117 17.1876 7.8125 15.0889 7.8125 12.5001Z" fill="#5C82E4"/>
</svg>
